<svg width="22" height="22" viewBox="0 0 22 22" fill="none" xmlns="http://www.w3.org/2000/svg">
<path d="M16.5365 12.4202C16.1515 12.796 15.9315 13.3368 15.9865 13.9143C16.069 14.9043 16.9765 15.6285 17.9665 15.6285H19.7082V16.7193C19.7082 18.6168 18.159 20.166 16.2615 20.166H5.73817C3.84067 20.166 2.2915 18.6168 2.2915 16.7193V10.5502C2.2915 8.65269 3.84067 7.10352 5.73817 7.10352H16.2615C18.159 7.10352 19.7082 8.65269 19.7082 10.5502V11.8702H17.8565C17.3432 11.8702 16.8757 12.0718 16.5365 12.4202Z" stroke="#545464" stroke-width="1.5" stroke-linecap="round" stroke-linejoin="round"/>
<path d="M2.2915 11.3757V7.18658C2.2915 6.09575 2.96067 5.12404 3.97817 4.73904L11.2565 1.98904C12.3932 1.55821 13.6123 2.40157 13.6123 3.62073V7.10405" stroke="#545464" stroke-width="1.5" stroke-linecap="round" stroke-linejoin="round"/>
<path d="M20.6787 12.8061V14.6944C20.6787 15.1986 20.2754 15.6111 19.7621 15.6294H17.9654C16.9754 15.6294 16.0679 14.9052 15.9854 13.9152C15.9304 13.3377 16.1504 12.7969 16.5354 12.4211C16.8746 12.0727 17.3421 11.8711 17.8554 11.8711H19.7621C20.2754 11.8894 20.6787 12.3019 20.6787 12.8061Z" stroke="#545464" stroke-width="1.5" stroke-linecap="round" stroke-linejoin="round"/>
<path d="M6.4165 11H12.8332" stroke="#545464" stroke-width="1.5" stroke-linecap="round" stroke-linejoin="round"/>
</svg>
