<svg id="Layer_1" data-name="Layer 1" xmlns="http://www.w3.org/2000/svg" viewBox="0 0 220.68 220.68"><defs><style>.cls-1{fill:#fff;}.cls-2,.cls-3{fill:#5ac0cd;stroke-miterlimit:10;stroke-width:4px;}.cls-2{stroke:#59c0cd;}.cls-3{stroke:#5ac0cd;}</style></defs><title>LOGO</title><circle class="cls-1" cx="110.34" cy="110.34" r="110.34"/><polygon class="cls-2" points="110.47 20.43 17.13 104.89 54.24 105.67 54.49 177.19 94.35 177.19 94.47 169.71 60.99 169.39 60.74 98.81 35.87 97.56 110.47 30.56 186.56 98.33 167.45 98.33 167.57 105.67 203.55 105.04 110.47 20.43"/><path class="cls-3" d="M118,180.15c-4.5,0-8.83.45-13-.1-7.11-.94-12.31-7.51-11.72-14a14,14,0,0,1,8.45-11.47V141.78a6.07,6.07,0,0,1-.07-.63,13.63,13.63,0,0,1-8.15-9.74c-1.26-6.46,2.64-12.83,9.36-15.07,4.92-1.64,10-.61,15.25-.87V136h11.66V104.66c-8.28,0-16.4-.38-24.47.09-12.6.73-22.82,10.47-23.79,22-.72,8.46,2.56,15.46,9.88,21.39a7.14,7.14,0,0,0-1.36.7c-8.16,7.26-10.76,16-7.17,25.86s11.54,15.41,22.81,16.43c4.8.44,9.69.16,14.54.19h9.54V160H118Z" transform="translate(-4.18 -10.85)"/><path class="cls-3" d="M163.49,141.25c5.14-2.12,8.71-6.81,8.71-12.26,0-7.32-6.46-13.36-14.54-13.51-3.33-.06-6.66,0-10.33,0V136h-11.7V104.57h21.11c11.66,0,21.35,5.86,25.46,15.37s1.48,19.75-6.84,27.11a12.28,12.28,0,0,1-1.05.74c.52.51.87.89,1.26,1.23,8.12,7.13,10.67,17.53,6.61,27-4,9.23-13.71,15.31-24.76,15.38-7.22,0-14.44,0-21.8,0V160h11.66v20.68c4.79-.21,9.37,0,13.75-.71,7-1.22,11.8-7.76,11.11-14.2a13.87,13.87,0,0,0-8.55-11.16Z" transform="translate(-4.18 -10.85)"/></svg>